<svg width="92" height="62" viewBox="0 0 92 62" fill="none" xmlns="http://www.w3.org/2000/svg">
<path d="M43.2975 39.0515C43.2975 37.8739 43.5048 36.7486 43.9454 35.7019C44.36 34.6551 45.0079 33.6869 45.8113 32.7971C46.6146 31.9859 47.5217 31.3578 48.5324 30.9129C49.543 30.4681 50.6315 30.2587 51.7717 30.2587C52.912 30.2587 53.9745 30.4681 55.0111 30.9129C56.0478 31.3578 56.9289 31.9859 57.7322 32.7971C58.5356 33.6345 59.1576 34.5766 59.5722 35.6495C59.9869 36.7224 60.1942 37.8477 60.1942 39.0515C60.1942 40.2291 59.9869 41.3543 59.5722 42.4273C59.1576 43.5002 58.5356 44.4423 57.7322 45.2797C56.9289 46.1171 56.0218 46.7451 55.0111 47.1638C54.0005 47.5825 52.912 47.818 51.7717 47.818C50.6315 47.818 49.569 47.6087 48.5324 47.1638C47.5217 46.7451 46.6146 46.0909 45.8113 45.2797C44.982 44.4161 44.36 43.4478 43.9454 42.4011C43.5048 41.3282 43.2975 40.2029 43.2975 39.0515ZM44.8265 39.0253C44.8265 41.0926 45.5003 42.846 46.8479 44.2852C48.1955 45.7245 49.8281 46.4311 51.7717 46.4311C53.6895 46.4311 55.3221 45.6984 56.6697 44.2591C58.0173 42.8198 58.6652 41.0665 58.6652 38.9991C58.6652 36.9056 57.9914 35.1523 56.6697 33.7392C55.3221 32.2999 53.6895 31.5933 51.7717 31.5933C49.8281 31.5933 48.1955 32.2999 46.8479 33.7392C45.5003 35.1785 44.8265 36.9318 44.8265 39.0253Z" fill="#6D2080"/>
<path d="M61.5197 30.6163H63.0748L68.5177 45.3906C68.6214 45.6778 68.6991 45.8605 68.8028 45.991C68.9065 46.1215 69.0101 46.1737 69.1138 46.1737C69.2434 46.1737 69.3471 46.0954 69.4767 45.9649C69.5803 45.8344 69.684 45.6517 69.7618 45.3906L75.2047 30.5902H76.7598L71.0059 46.0954C70.7985 46.7219 70.5393 47.1657 70.2542 47.4267C69.9691 47.6877 69.6063 47.8182 69.1657 47.8182C68.725 47.8182 68.3363 47.6877 68.0511 47.4267C67.766 47.1657 67.5069 46.7219 67.2995 46.0954L61.5197 30.6163Z" fill="#6D2080"/>
<path d="M92 47.7921H90.4449L85.002 33.0178C84.8983 32.7307 84.8206 32.548 84.7169 32.4174C84.6132 32.2869 84.5096 32.2347 84.4059 32.2347C84.2763 32.2347 84.1726 32.313 84.043 32.4435C83.9393 32.5741 83.8357 32.7568 83.7579 33.0178L78.315 47.8182H76.7599L82.5138 32.313C82.7212 31.6866 82.9804 31.2428 83.2655 30.9818C83.5506 30.7207 83.9134 30.5902 84.3541 30.5902C84.7947 30.5902 85.1834 30.7207 85.4685 30.9818C85.7537 31.2428 86.0128 31.6866 86.2202 32.313L92 47.7921Z" fill="#6D2080"/>
<path d="M4.20292 36.7198C2.79193 44.2729 9.4239 53.1603 15.852 56.2889C18.0194 57.3438 20.755 58.2301 22.9751 58.4424C27.2062 58.8471 31.5396 57.5592 35.0148 55.7697C49.758 47.487 48.0763 25.2286 47.8046 23.2658C46.6287 14.5911 41.9968 2.75628 36.6413 2.13244C31.3927 1.50401 31.0541 12.3249 19.351 24.1409C10.6749 32.8651 5.35759 30.56 4.20292 36.7198Z" fill="#6D2080"/>
<path opacity="0.85" d="M7.03576 45.7879C7.75424 51.8894 14.6086 56.4349 20.0221 57.9401C28.1964 60.2013 35.7716 56.3355 40.316 51.7937C51.9952 40.0583 44.4623 20.2456 43.875 18.7951C40.416 10.5904 32.8657 1.52442 27.6888 2.47454C22.719 3.38666 25.448 13.4449 18.0945 27.6106C12.6603 38.0923 6.33637 39.7903 7.03576 45.7879Z" fill="#00FF9E"/>
<path d="M18.1224 36.8009V47.693H16.9185V37.272C16.9185 35.1215 17.4837 33.4276 18.5736 32.2269L18.5736 32.2269L18.5745 32.2259C19.663 31.0012 21.1842 30.3837 23.1026 30.3837C24.2503 30.3837 25.2914 30.6664 26.1521 31.2023L26.1521 31.2023L26.1535 31.2031C27.0395 31.7389 27.779 32.5584 28.4206 33.6708L28.5268 33.8549L28.6361 33.6726C29.3035 32.5601 30.0692 31.7396 30.9563 31.2031C31.8449 30.6657 32.8349 30.3837 33.9812 30.3837C35.8987 30.3837 37.395 31.0007 38.5102 32.227C39.6265 33.4543 40.1913 35.1223 40.1913 37.272V47.693H38.9614V36.8009C38.9614 35.2325 38.5125 33.9438 37.6041 32.974C36.6951 31.9773 35.5179 31.4945 34.0591 31.4945C32.6008 31.4945 31.3972 31.977 30.4877 32.9746C29.5806 33.9695 29.1309 35.2311 29.1309 36.8009V47.693H27.9269V36.8009C27.9269 35.2325 27.478 33.9437 26.5696 32.974C25.6606 31.9773 24.4834 31.4945 23.0247 31.4945C21.5908 31.4945 20.4145 31.9779 19.4804 32.9733L19.4804 32.9732L19.4792 32.9746C18.5721 33.9695 18.1224 35.2311 18.1224 36.8009Z" fill="white" stroke="white" stroke-width="0.25"/>
</svg>
